<svg width="28" height="28" viewBox="0 0 28 28" fill="none" xmlns="http://www.w3.org/2000/svg">
<g clip-path="url(#clip0_1_68)">
<path d="M9.62305 4.46973H18.3154C18.2539 3.67871 17.7881 3.25684 16.9355 3.25684H10.9941C10.1416 3.25684 9.67578 3.67871 9.62305 4.46973ZM8.11133 7.01855H19.8184C19.6953 6.18359 19.2734 5.70898 18.333 5.70898H9.59668C8.65625 5.70898 8.23438 6.18359 8.11133 7.01855ZM9.05176 24.0693H19.1592C20.8379 24.0693 21.8223 23.0938 21.8223 21.2129V11.2725C21.8223 9.3916 20.8379 8.41602 18.9395 8.41602H9.05176C7.15332 8.41602 6.16895 9.3916 6.16895 11.2725V21.2129C6.16895 23.0938 7.15332 24.0693 9.05176 24.0693ZM9.15723 22.3467C8.33984 22.3467 7.8916 21.9248 7.8916 21.0723V11.4131C7.8916 10.5605 8.33984 10.1387 9.15723 10.1387H18.834C19.6426 10.1387 20.0996 10.5605 20.0996 11.4131V21.0723C20.0996 21.9248 19.6426 22.3467 19.0537 22.3467H9.15723Z" fill="white"/>
</g>
<defs>
<clipPath id="clip0_1_68">
<rect width="28" height="28" fill="white"/>
</clipPath>
</defs>
</svg>
