<svg width="28" height="28" viewBox="0 0 28 28" fill="none" xmlns="http://www.w3.org/2000/svg">
<path d="M16.6455 5.8584L21.6729 10.8857C23.2373 9.34766 23.334 7.29101 21.7871 5.75293C20.2402 4.21484 18.1924 4.29394 16.6455 5.8584ZM15.6963 6.81641C14.7822 7.72168 14.3691 8.77637 14.4834 9.81348L6.32715 18.5674C5.97559 18.9541 5.94043 19.4463 6.37109 19.9209L5.20215 21.4062C5.06152 21.582 5.07031 21.8457 5.25488 22.0303L5.50977 22.2852C5.69434 22.4697 5.94922 22.4873 6.14258 22.3291L7.62793 21.1602C8.07617 21.5908 8.58594 21.5557 8.95508 21.2041L13.3232 17.1436V21.8896C13.3232 22.3906 13.7188 22.7773 14.2197 22.7773C14.7207 22.7773 15.1162 22.3906 15.1162 21.8896V16.7041L15.0547 15.5439L17.7178 13.0742C18.7461 13.1797 19.8184 12.7578 20.7148 11.8437L15.6963 6.81641ZM7.41699 19.3232L15.0283 11.3076C15.1777 11.5361 15.3535 11.7559 15.5645 11.9668C15.7666 12.1777 15.9863 12.3623 16.2061 12.5117L8.2168 20.123L7.41699 19.3232Z" fill="white"/>
</svg>
