<svg width="28" height="28" viewBox="0 0 28 28" fill="none" xmlns="http://www.w3.org/2000/svg">
<g clip-path="url(#clip0_1_70)">
<path d="M7.68066 12.9775H11.416C12.6816 12.9775 13.3057 12.3623 13.3057 11.0615V7.37891C13.3057 6.07812 12.6816 5.46289 11.416 5.46289H7.68066C6.41504 5.46289 5.79102 6.07812 5.79102 7.37891V11.0615C5.79102 12.3623 6.41504 12.9775 7.68066 12.9775ZM16.5752 12.9775H20.3105C21.5762 12.9775 22.2002 12.3623 22.2002 11.0615V7.37891C22.2002 6.07812 21.5762 5.46289 20.3105 5.46289H16.5752C15.3008 5.46289 14.6855 6.07812 14.6855 7.37891V11.0615C14.6855 12.3623 15.3008 12.9775 16.5752 12.9775ZM7.68945 11.5361C7.38184 11.5361 7.23242 11.3779 7.23242 11.0615V7.37891C7.23242 7.0625 7.38184 6.9043 7.68945 6.9043H11.3984C11.7061 6.9043 11.8643 7.0625 11.8643 7.37891V11.0615C11.8643 11.3779 11.7061 11.5361 11.3984 11.5361H7.68945ZM16.584 11.5361C16.2764 11.5361 16.127 11.3779 16.127 11.0615V7.37891C16.127 7.0625 16.2764 6.9043 16.584 6.9043H20.3018C20.6094 6.9043 20.75 7.0625 20.75 7.37891V11.0615C20.75 11.3779 20.6094 11.5361 20.3018 11.5361H16.584ZM7.68066 21.8721H11.416C12.6816 21.8721 13.3057 21.2568 13.3057 19.9473V16.2734C13.3057 14.9727 12.6816 14.3574 11.416 14.3574H7.68066C6.41504 14.3574 5.79102 14.9727 5.79102 16.2734V19.9473C5.79102 21.2568 6.41504 21.8721 7.68066 21.8721ZM16.5752 21.8721H20.3105C21.5762 21.8721 22.2002 21.2568 22.2002 19.9473V16.2734C22.2002 14.9727 21.5762 14.3574 20.3105 14.3574H16.5752C15.3008 14.3574 14.6855 14.9727 14.6855 16.2734V19.9473C14.6855 21.2568 15.3008 21.8721 16.5752 21.8721ZM7.68945 20.4219C7.38184 20.4219 7.23242 20.2725 7.23242 19.9561V16.2734C7.23242 15.957 7.38184 15.7988 7.68945 15.7988H11.3984C11.7061 15.7988 11.8643 15.957 11.8643 16.2734V19.9561C11.8643 20.2725 11.7061 20.4219 11.3984 20.4219H7.68945ZM16.584 20.4219C16.2764 20.4219 16.127 20.2725 16.127 19.9561V16.2734C16.127 15.957 16.2764 15.7988 16.584 15.7988H20.3018C20.6094 15.7988 20.75 15.957 20.75 16.2734V19.9561C20.75 20.2725 20.6094 20.4219 20.3018 20.4219H16.584Z" fill="white"/>
</g>
<defs>
<clipPath id="clip0_1_70">
<rect width="28" height="28" fill="white"/>
</clipPath>
</defs>
</svg>
