<svg width="28" height="28" viewBox="0 0 28 28" fill="none" xmlns="http://www.w3.org/2000/svg">
<path fill-rule="evenodd" clip-rule="evenodd" d="M0.934032 2.78504C0 4.25684 0 6.27789 0 10.32V17.68C0 21.7221 0 23.7432 0.934032 25.215C1.40728 25.9607 2.03932 26.5927 2.78504 27.066C4.25684 28 6.27789 28 10.32 28H17.68C21.7221 28 23.7432 28 25.215 27.066C25.9607 26.5927 26.5927 25.9607 27.066 25.215C28 23.7432 28 21.7221 28 17.68V10.32C28 6.27789 28 4.25684 27.066 2.78504C26.5927 2.03932 25.9607 1.40728 25.215 0.934032C23.7432 0 21.7221 0 17.68 0H10.32C6.27789 0 4.25684 0 2.78504 0.934032C2.03932 1.40728 1.40728 2.03932 0.934032 2.78504ZM20.5566 8.24902C23.624 8.24902 25.6982 10.3848 25.6982 13.6543C25.6982 16.9238 23.624 19.0596 20.5566 19.0596C18.9482 19.0596 17.5684 18.374 16.0918 16.9502L13.9912 14.9199L11.8994 16.9502C10.4229 18.374 9.04297 19.0596 7.43457 19.0596C4.36719 19.0596 2.29297 16.9238 2.29297 13.6543C2.29297 10.3848 4.36719 8.24902 7.43457 8.24902C9.04297 8.24902 10.4229 8.92578 11.8994 10.3584L13.9912 12.3799L16.0918 10.3584C17.5684 8.92578 18.9482 8.24902 20.5566 8.24902ZM10.5811 15.623L12.6816 13.6543L10.5898 11.6855C9.47363 10.6396 8.50684 10.1211 7.43457 10.1211C5.49219 10.1211 4.16504 11.501 4.16504 13.6543C4.16504 15.7988 5.49219 17.1875 7.43457 17.1875C8.50684 17.1875 9.47363 16.6689 10.5811 15.623ZM17.4014 11.6855L15.3096 13.6543L17.4102 15.623C18.5176 16.6689 19.4844 17.1875 20.5566 17.1875C22.499 17.1875 23.8262 15.7988 23.8262 13.6543C23.8262 11.501 22.499 10.1211 20.5566 10.1211C19.4756 10.1211 18.5176 10.6396 17.4014 11.6855Z" fill="white"/>
</svg>
