<svg width="28" height="28" viewBox="0 0 28 28" fill="none" xmlns="http://www.w3.org/2000/svg">
<path fill-rule="evenodd" clip-rule="evenodd" d="M0.934032 2.78504C0 4.25684 0 6.27789 0 10.32V17.68C0 21.7221 0 23.7432 0.934032 25.215C1.40728 25.9607 2.03932 26.5927 2.78504 27.066C4.25684 28 6.27789 28 10.32 28H17.68C21.7221 28 23.7432 28 25.215 27.066C25.9607 26.5927 26.5927 25.9607 27.066 25.215C28 23.7432 28 21.7221 28 17.68V10.32C28 6.27789 28 4.25684 27.066 2.78504C26.5927 2.03932 25.9607 1.40728 25.215 0.934032C23.7432 0 21.7221 0 17.68 0H10.32C6.27789 0 4.25684 0 2.78504 0.934032C2.03932 1.40728 1.40728 2.03932 0.934032 2.78504ZM7.4082 8.25781C7.4082 8.95215 6.85449 9.50586 6.16016 9.50586C5.47461 9.50586 4.91211 8.95215 4.91211 8.25781C4.91211 7.57227 5.47461 7.00977 6.16016 7.00977C6.85449 7.00977 7.4082 7.57227 7.4082 8.25781ZM22.2266 9.10156H10.291C9.81641 9.10156 9.44727 8.73242 9.44727 8.25781C9.44727 7.7832 9.8252 7.41406 10.291 7.41406H22.2266C22.71 7.41406 23.0791 7.7832 23.0791 8.25781C23.0791 8.73242 22.7012 9.10156 22.2266 9.10156ZM7.4082 13.6631C7.4082 14.3574 6.85449 14.9111 6.16016 14.9111C5.47461 14.9111 4.91211 14.3574 4.91211 13.6631C4.91211 12.9775 5.47461 12.415 6.16016 12.415C6.85449 12.415 7.4082 12.9775 7.4082 13.6631ZM22.2266 14.5068H10.291C9.81641 14.5068 9.44727 14.1377 9.44727 13.6631C9.44727 13.1885 9.8252 12.8193 10.291 12.8193H22.2266C22.71 12.8193 23.0791 13.1885 23.0791 13.6631C23.0791 14.1377 22.7012 14.5068 22.2266 14.5068ZM7.4082 19.0684C7.4082 19.7627 6.85449 20.3164 6.16016 20.3164C5.47461 20.3164 4.91211 19.7627 4.91211 19.0684C4.91211 18.3828 5.47461 17.8203 6.16016 17.8203C6.85449 17.8203 7.4082 18.3828 7.4082 19.0684ZM22.2266 19.9121H10.291C9.81641 19.9121 9.44727 19.543 9.44727 19.0684C9.44727 18.5938 9.8252 18.2246 10.291 18.2246H22.2266C22.71 18.2246 23.0791 18.5938 23.0791 19.0684C23.0791 19.543 22.7012 19.9121 22.2266 19.9121Z" fill="white"/>
</svg>
