<svg width="28" height="28" viewBox="0 0 28 28" fill="none" xmlns="http://www.w3.org/2000/svg">
<g clip-path="url(#clip0_1_58)">
<path d="M14 22.7334C18.9658 22.7334 23.0791 18.6289 23.0791 13.6543C23.0791 8.68848 18.9658 4.5752 13.9912 4.5752C9.02539 4.5752 4.9209 8.68848 4.9209 13.6543C4.9209 18.6289 9.03418 22.7334 14 22.7334ZM14 20.9492C9.95703 20.9492 6.71387 17.6973 6.71387 13.6543C6.71387 9.61133 9.94824 6.36816 13.9912 6.36816C18.0342 6.36816 21.2949 9.61133 21.2949 13.6543C21.2949 17.6973 18.043 20.9492 14 20.9492ZM12.3477 17.1172L17.4014 14.1465C17.7705 13.9268 17.7617 13.3994 17.4014 13.1797L12.3477 10.2002C11.9609 9.97168 11.4512 10.165 11.4512 10.5957V16.7217C11.4512 17.1523 11.9346 17.3633 12.3477 17.1172Z" fill="white"/>
</g>
<defs>
<clipPath id="clip0_1_58">
<rect width="28" height="28" fill="white"/>
</clipPath>
</defs>
</svg>
