<svg width="28" height="28" viewBox="0 0 28 28" fill="none" xmlns="http://www.w3.org/2000/svg">
<path fill-rule="evenodd" clip-rule="evenodd" d="M0.934032 2.78504C0 4.25684 0 6.27789 0 10.32V17.68C0 21.7221 0 23.7432 0.934032 25.215C1.40728 25.9607 2.03932 26.5927 2.78504 27.066C4.25684 28 6.27789 28 10.32 28H17.68C21.7221 28 23.7432 28 25.215 27.066C25.9607 26.5927 26.5927 25.9607 27.066 25.215C28 23.7432 28 21.7221 28 17.68V10.32C28 6.27789 28 4.25684 27.066 2.78504C26.5927 2.03932 25.9607 1.40728 25.215 0.934032C23.7432 0 21.7221 0 17.68 0H10.32C6.27789 0 4.25684 0 2.78504 0.934032C2.03932 1.40728 1.40728 2.03932 0.934032 2.78504ZM11.293 22.6807C10.6865 23.2168 10.3174 23.4629 9.81641 23.4629C9.10449 23.4629 8.69141 22.9619 8.69141 22.1797V20.0264H8.33105C5.7998 20.0264 4.26172 18.5059 4.26172 15.8867V9.05762C4.26172 6.44727 5.75586 4.91797 8.39258 4.91797H19.5986C22.2441 4.91797 23.7295 6.44727 23.7295 9.05762V15.8867C23.7295 18.4971 22.2441 20.0264 19.5986 20.0264H14.3076L11.293 22.6807ZM10.2559 18.9893V21.4941L13.042 18.7432C13.4111 18.3564 13.6748 18.2686 14.2109 18.2686H19.5459C21.1895 18.2686 21.9805 17.4336 21.9805 15.834V9.11035C21.9805 7.51074 21.1895 6.67578 19.5459 6.67578H8.4541C6.80176 6.67578 6.01074 7.51074 6.01074 9.11035V15.834C6.01074 17.4336 6.80176 18.2686 8.4541 18.2686H9.53516C10.0273 18.2686 10.2559 18.4707 10.2559 18.9893ZM11.4336 13.3379C10.4668 13.3379 9.84277 12.5732 9.84277 11.5889C9.84277 10.543 10.625 9.80469 11.6709 9.80469C12.8311 9.80469 13.5957 10.7363 13.5957 11.9404C13.5957 14.0059 11.9082 15.0957 10.9941 15.0957C10.7393 15.0957 10.5459 14.9287 10.5459 14.7002C10.5459 14.4893 10.6514 14.3486 10.9502 14.2695C11.5918 14.1113 12.2246 13.6455 12.5059 12.9775H12.4004C12.1719 13.25 11.8115 13.3379 11.4336 13.3379ZM16.0566 13.3379C15.0898 13.3379 14.4658 12.5732 14.4658 11.5889C14.4658 10.543 15.248 9.80469 16.2939 9.80469C17.4541 9.80469 18.2188 10.7363 18.2188 11.9404C18.2188 14.0059 16.5312 15.0957 15.6172 15.0957C15.3623 15.0957 15.1777 14.9287 15.1777 14.7002C15.1777 14.4893 15.2832 14.3486 15.5732 14.2695C16.2148 14.1113 16.8477 13.6455 17.1289 12.9775H17.0322C16.8037 13.25 16.4434 13.3379 16.0566 13.3379Z" fill="white"/>
</svg>
