<svg width="28" height="28" viewBox="0 0 28 28" fill="none" xmlns="http://www.w3.org/2000/svg">
<g clip-path="url(#clip0_1_53)">
<path d="M2.29297 13.6631C2.29297 16.625 3.3916 19.3408 5.33398 21.3711C5.67676 21.7314 6.16016 21.7051 6.4502 21.3887C6.73145 21.0811 6.67871 20.624 6.34473 20.2812C4.68359 18.541 3.77832 16.2031 3.77832 13.6631C3.77832 11.123 4.68359 8.78516 6.34473 7.04492C6.67871 6.69336 6.73145 6.24512 6.4502 5.9375C6.16016 5.62109 5.67676 5.59473 5.33398 5.95508C3.3916 7.98535 2.29297 10.7012 2.29297 13.6631ZM25.707 13.6631C25.707 10.7012 24.5996 7.98535 22.666 5.95508C22.3232 5.59473 21.8398 5.62109 21.5498 5.9375C21.2686 6.24512 21.3213 6.69336 21.6553 7.04492C23.3164 8.78516 24.2217 11.123 24.2217 13.6631C24.2217 16.2031 23.3164 18.541 21.6553 20.2812C21.3213 20.624 21.2686 21.0811 21.5498 21.3887C21.8398 21.7051 22.3232 21.7314 22.666 21.3711C24.5996 19.3408 25.707 16.625 25.707 13.6631ZM5.49219 13.6631C5.49219 15.7637 6.24805 17.7324 7.59277 19.2002C7.94434 19.5781 8.44531 19.5781 8.74414 19.2354C9.03418 18.9102 8.96387 18.4883 8.62988 18.1191C7.55762 16.915 6.97754 15.3682 6.97754 13.6631C6.97754 11.958 7.55762 10.4023 8.62988 9.19824C8.96387 8.83789 9.03418 8.41602 8.74414 8.08203C8.44531 7.73926 7.94434 7.74805 7.59277 8.12598C6.24805 9.59375 5.49219 11.5537 5.49219 13.6631ZM22.5078 13.6631C22.5078 11.5537 21.752 9.59375 20.4072 8.12598C20.0557 7.74805 19.5459 7.73926 19.2559 8.08203C18.9658 8.41602 19.0361 8.83789 19.3701 9.19824C20.4424 10.4023 21.0225 11.958 21.0225 13.6631C21.0225 15.3682 20.4424 16.915 19.3701 18.1191C19.0361 18.4883 18.9658 18.9102 19.2559 19.2354C19.5459 19.5781 20.0557 19.5781 20.4072 19.2002C21.752 17.7324 22.5078 15.7637 22.5078 13.6631ZM19.3086 13.6631C19.3086 12.4678 18.9043 11.3428 18.2012 10.4551C17.876 10.042 17.3311 10.042 17.0234 10.3848C16.7334 10.71 16.8389 11.0967 17.1289 11.501C17.5859 12.0898 17.8232 12.8369 17.8232 13.6631C17.8232 14.4805 17.5859 15.2275 17.1289 15.8252C16.8389 16.2207 16.7334 16.6162 17.0234 16.9414C17.3311 17.2842 17.876 17.2754 18.2012 16.8711C18.9043 15.9834 19.3086 14.8584 19.3086 13.6631ZM8.69141 13.6631C8.69141 14.8584 9.0957 15.9834 9.79883 16.8711C10.124 17.2754 10.6689 17.2842 10.9766 16.9414C11.2578 16.6162 11.1611 16.2207 10.8623 15.8252C10.4141 15.2275 10.1768 14.4805 10.1768 13.6631C10.1768 12.8369 10.4141 12.0898 10.8623 11.501C11.1611 11.0967 11.2578 10.71 10.9766 10.3848C10.6689 10.042 10.124 10.042 9.79883 10.4551C9.0957 11.3428 8.69141 12.4678 8.69141 13.6631ZM12.3301 13.6807C12.3301 14.5684 13.1035 15.3154 14.0088 15.3154C14.9229 15.3154 15.6699 14.5684 15.6699 13.6631C15.6699 12.7402 14.9316 11.9932 14.0088 11.9932C13.0947 11.9932 12.3301 12.7666 12.3301 13.6807Z" fill="white"/>
</g>
<defs>
<clipPath id="clip0_1_53">
<rect width="28" height="28" fill="white"/>
</clipPath>
</defs>
</svg>
