<svg width="28" height="28" viewBox="0 0 28 28" fill="none" xmlns="http://www.w3.org/2000/svg">
<g clip-path="url(#clip0_1_67)">
<path d="M6.46777 21.8721H21.5234C23.4219 21.8721 24.4062 20.8877 24.4062 19.0156V8.31934C24.4062 6.43848 23.4219 5.46289 21.5234 5.46289H6.46777C4.56934 5.46289 3.58496 6.43848 3.58496 8.31934V19.0156C3.58496 20.8965 4.56934 21.8721 6.46777 21.8721ZM6.57324 20.1494C5.75586 20.1494 5.30762 19.7188 5.30762 18.8662V8.45996C5.30762 7.60742 5.75586 7.18555 6.57324 7.18555H10.5723V20.1494H6.57324ZM21.418 7.18555C22.2266 7.18555 22.6836 7.60742 22.6836 8.45996V18.8662C22.6836 19.7188 22.2266 20.1494 21.418 20.1494H12.207V7.18555H21.418ZM8.84961 10.4023C9.15723 10.4023 9.4209 10.1387 9.4209 9.83984C9.4209 9.54102 9.15723 9.28613 8.84961 9.28613H7.04785C6.73145 9.28613 6.46777 9.54102 6.46777 9.83984C6.46777 10.1387 6.73145 10.4023 7.04785 10.4023H8.84961ZM8.84961 12.7578C9.15723 12.7578 9.4209 12.4941 9.4209 12.1953C9.4209 11.8965 9.15723 11.6416 8.84961 11.6416H7.04785C6.73145 11.6416 6.46777 11.8965 6.46777 12.1953C6.46777 12.4941 6.73145 12.7578 7.04785 12.7578H8.84961ZM8.84961 15.1045C9.15723 15.1045 9.4209 14.8496 9.4209 14.5508C9.4209 14.252 9.15723 13.9971 8.84961 13.9971H7.04785C6.73145 13.9971 6.46777 14.252 6.46777 14.5508C6.46777 14.8496 6.73145 15.1045 7.04785 15.1045H8.84961Z" fill="white"/>
</g>
<defs>
<clipPath id="clip0_1_67">
<rect width="28" height="28" fill="white"/>
</clipPath>
</defs>
</svg>
