<svg width="28" height="28" viewBox="0 0 28 28" fill="none" xmlns="http://www.w3.org/2000/svg">
<g clip-path="url(#clip0_1_69)">
<path d="M19.4844 9.01367V5.71777C19.4844 5.19043 19.0537 4.84766 18.5439 4.95312L14.0176 5.9375C13.4023 6.06934 13.0684 6.40332 13.0684 6.94824L13.0859 16.6865C13.1211 17.0732 12.9365 17.3193 12.6025 17.3896L11.1963 17.6797C9.38574 18.0576 8.51562 18.9893 8.51562 20.3867C8.51562 21.793 9.58789 22.7773 11.1172 22.7773C12.5586 22.7773 14.4482 21.6963 14.4482 19.1826V11.1318C14.4482 10.71 14.501 10.6484 14.8877 10.5693L18.9307 9.68164C19.2646 9.61133 19.4844 9.34766 19.4844 9.01367Z" fill="white"/>
</g>
<defs>
<clipPath id="clip0_1_69">
<rect width="28" height="28" fill="white"/>
</clipPath>
</defs>
</svg>
