<svg width="28" height="28" viewBox="0 0 28 28" fill="none" xmlns="http://www.w3.org/2000/svg">
<path d="M22.666 22.3115C23.0527 22.5664 23.5713 22.4521 23.8525 22.0303C25.3994 19.71 26.3311 16.8271 26.3311 13.6631C26.3311 10.4902 25.3818 7.61621 23.8525 5.28711C23.5713 4.85644 23.0527 4.75098 22.666 5.00586C22.2441 5.27832 22.1826 5.79687 22.4727 6.26269C23.8174 8.31055 24.6523 10.8506 24.6523 13.6631C24.6523 16.458 23.8174 19.0156 22.4727 21.0547C22.1826 21.5205 22.2441 22.0391 22.666 22.3115ZM11.293 21.5381C11.9521 21.5381 12.4355 21.0459 12.4355 20.3955V6.97461C12.4355 6.31543 11.9521 5.78808 11.2754 5.78808C10.8271 5.78808 10.502 5.97265 10.0273 6.43848L6.35352 9.875C6.30078 9.92773 6.23047 9.9541 6.15137 9.9541H3.66406C2.36328 9.9541 1.66016 10.6748 1.66016 12.0371V15.3066C1.66016 16.6689 2.36328 17.3896 3.66406 17.3896H6.15137C6.23047 17.3896 6.29199 17.416 6.35352 17.4687L10.0273 20.9316C10.4668 21.3535 10.8359 21.5381 11.293 21.5381ZM19.1064 19.9297C19.5107 20.1758 20.0029 20.0879 20.2842 19.6748C21.4268 18.0576 22.0947 15.8867 22.0947 13.6543C22.0947 11.4219 21.4355 9.24219 20.2842 7.63379C20.0029 7.2207 19.5107 7.12402 19.1064 7.37891C18.6846 7.64258 18.623 8.16992 18.9395 8.63574C19.8711 10.0068 20.4072 11.791 20.4072 13.6543C20.4072 15.5088 19.8623 17.293 18.9395 18.6729C18.6318 19.1387 18.6846 19.6572 19.1064 19.9297ZM15.5645 17.5742C15.9424 17.8203 16.4346 17.7324 16.707 17.3457C17.4189 16.3965 17.8408 15.0518 17.8408 13.6543C17.8408 12.2568 17.4189 10.9209 16.707 9.96289C16.4346 9.57617 15.9424 9.48828 15.5645 9.74316C15.1338 10.0244 15.0547 10.543 15.3975 11.0527C15.8809 11.7471 16.1533 12.6787 16.1533 13.6543C16.1533 14.6299 15.8809 15.5527 15.3975 16.2559C15.0547 16.7656 15.1338 17.2842 15.5645 17.5742Z" fill="white"/>
</svg>
